<svg width="408" height="408" viewBox="0 0 408 408" fill="none" xmlns="http://www.w3.org/2000/svg">
<g clip-path="url(#clip0_1867_19)">
<path d="M91.44 408.6C83.27 406.7 75.31 404.36 68.45 399.19C56.31 390.05 49.87 377.88 49.22 362.77C48.89 355.2 49.12 347.6 49.12 340.02C49.12 248.47 49.1 156.92 49.13 65.3698C49.14 36.3998 65.59 12.4898 92.44 3.41977C99.24 1.11977 106.75 -0.0202322 113.94 -0.0502322C173.95 -0.320232 233.96 -0.270237 293.98 -0.180237C330.71 -0.120237 358.82 27.8198 358.88 64.4498C359 136.31 358.9 208.16 358.94 280.02C358.94 287.02 356.44 292.54 350.14 295.8C344.45 298.74 338.79 298.18 333.57 294.46C329.54 291.59 327.45 287.53 327.06 282.63C326.93 281.04 326.98 279.44 326.98 277.84C326.98 207.18 326.99 136.52 326.97 65.8698C326.97 49.2898 318.37 37.2798 303.26 33.0298C299.98 32.1098 296.44 31.7898 293.02 31.7898C233.67 31.7198 174.33 31.7098 114.98 31.7498C94.74 31.7598 81.08 45.3398 81.07 65.5098C81.04 163.45 81.05 261.38 81.06 359.32C81.06 367.64 84.22 372.84 91.01 375.39C98.28 378.12 104.42 376.34 109.82 370.76C136.86 342.86 164 315.06 191.07 287.18C196.11 281.99 201.93 279.2 208.98 281.86C212.07 283.03 214.98 285.31 217.34 287.72C244.34 315.29 271.25 342.95 298.11 370.66C302.73 375.43 307.93 377.79 314.58 376.08C322.29 374.09 326.39 368.96 326.99 360.55C327.79 349.3 337.63 342.27 347.92 345.59C354.64 347.76 358.91 353.95 358.9 361.5C358.86 384.11 342.01 403.74 319.17 407.82C318.29 407.98 317.45 408.35 316.6 408.62C312.61 408.62 308.62 408.62 304.62 408.62C288.71 406.31 277.96 396.14 267.46 385.07C247.5 364.02 227.08 343.42 206.85 322.64C205.95 321.72 204.98 320.88 203.78 319.75C202.6 321.04 201.65 322.15 200.64 323.19C178.1 346.37 155.53 369.51 133.03 392.74C126.01 399.99 117.92 405.26 107.97 407.45C106.44 407.79 104.93 408.23 103.41 408.62C99.43 408.6 95.44 408.6 91.44 408.6Z" fill="#323232"/>
</g>
<defs>
<clipPath id="clip0_1867_19">
<rect width="408" height="408" fill="white"/>
</clipPath>
</defs>
</svg>
