<svg width="408" height="408" viewBox="0 0 408 408" fill="none" xmlns="http://www.w3.org/2000/svg">
<path d="M252.7 12C255.72 12.69 258.77 13.27 261.76 14.08C287.58 21.03 305.49 43.86 306.15 70.59C306.37 79.6 300.53 86.46 292.2 86.97C283.79 87.48 276.91 81.5 276.4 72.5C275.67 59.78 270.28 50.16 258.61 44.83C254.87 43.12 250.46 42.14 246.35 42.12C189.46 41.95 132.58 41.95 75.6901 42.04C59.5501 42.06 46.98 54.14 45.87 70.22C45.75 71.96 45.73 73.72 45.73 75.46C45.72 166.2 45.7201 256.93 45.7601 347.67C45.7601 350.52 45.77 353.52 46.61 356.18C49.88 366.46 63.8 369.33 71.73 361.36C81.41 351.62 90.9 341.69 100.47 331.83C116.74 315.08 133 298.32 149.28 281.59C156.66 274.01 165.35 274.01 172.81 281.68C198.32 307.9 223.84 334.12 249.26 360.42C253.98 365.3 259.32 367.31 265.81 365.15C272.42 362.95 275.99 358.25 276.28 351.19C276.55 344.58 279.54 339.68 285.69 337.12C295.47 333.05 306 340.22 306.19 350.95C306.54 371.14 292.4 389.48 272.67 394.43C270.52 394.97 268.35 395.48 266.2 396C262.46 396 258.71 396 254.97 396C254.67 395.8 254.39 395.47 254.06 395.42C243.5 393.91 234.96 388.76 227.66 381.13C217.31 370.32 206.82 359.65 196.39 348.92C184.66 336.85 172.94 324.78 160.67 312.15C159.79 313.34 159.16 314.43 158.3 315.32C140.94 333.23 123.56 351.11 106.18 369C103.23 372.04 100.1 374.93 97.3401 378.14C89.0701 387.75 78.9001 393.95 66.3201 396C62.5801 396 58.8301 396 55.0901 396C54.4201 395.76 53.7601 395.41 53.0701 395.28C46.3401 394.09 40.1301 391.6 34.5901 387.62C21.2601 378.03 15.7301 364.75 15.7501 348.54C15.8401 257.12 15.79 165.69 15.8 74.27C15.8 72.27 15.86 70.27 15.98 68.28C17.61 42.2 35.6601 20.34 60.9601 13.84C63.7201 13.13 66.5301 12.61 69.3101 12C130.43 12 191.56 12 252.7 12Z" fill="#323232"/>
<path d="M392.28 210.01C392.27 265.91 346.81 311.37 291.05 311.25C235.42 311.13 190.19 265.7 190.22 209.98C190.25 154.07 235.68 108.64 291.45 108.75C347.1 108.87 392.29 154.24 392.28 210.01ZM220.16 209.91C220.07 249.03 251.85 281.08 290.88 281.24C330.16 281.4 362.06 249.7 362.33 210.26C362.59 171.05 330.63 138.82 291.42 138.75C252.16 138.68 220.25 170.54 220.16 209.91Z" fill="#323232"/>
<path d="M306.05 225C306.05 230.91 306.33 236.3 305.98 241.64C305.56 247.95 301.189 252.76 295.069 254.44C289.139 256.07 282.52 254.06 279.3 248.75C277.58 245.92 276.79 242.3 276.39 238.93C275.89 234.74 276.229 230.45 276.189 226.2C276.189 225.96 276.06 225.72 275.86 225C271.55 225 267.1 225.02 262.65 225C253.15 224.96 246.48 218.86 246.39 210.14C246.3 201.29 253.04 195.04 262.73 195C267.07 194.99 271.419 195 276.439 195C276.439 189.25 276.17 183.78 276.51 178.36C276.88 172.48 280.27 168.38 285.63 166.14C290.89 163.94 295.93 164.76 300.43 168.22C304.47 171.33 306.199 175.62 306.199 180.66C306.199 185.28 306.199 189.89 306.199 195C310.909 195 315.36 194.99 319.81 195C329.33 195.03 335.98 201.11 336.08 209.83C336.18 218.69 329.44 224.95 319.75 224.99C315.43 225.01 311.09 225 306.05 225Z" fill="#323232"/>
</svg>
