<svg width="340" height="340" viewBox="0 0 340 340" fill="none" xmlns="http://www.w3.org/2000/svg">
<path d="M73.4634 0C137.813 0 202.173 0 266.523 0C267.143 0.2 267.753 0.450006 268.383 0.600006C281.083 3.59001 289.793 11.04 293.563 23.66C294.553 26.98 294.983 30.58 294.983 34.05C295.053 128.04 295.023 222.03 295.063 316.03C295.063 325.28 291.463 332.24 283.013 336.31C274.393 340.46 266.893 338.21 259.883 332.26C236.533 312.44 213.093 292.73 189.683 272.98C183.143 267.46 176.593 261.94 170.033 256.4C169.103 257.15 168.413 257.69 167.743 258.25C148.453 274.52 129.173 290.78 109.893 307.05C99.4534 315.86 89.0734 324.74 78.5634 333.47C67.8034 342.4 52.0435 338.93 46.7835 326.31C45.4335 323.08 45.0034 319.26 45.0034 315.7C44.9134 222.15 44.9334 128.6 44.9334 35.05C44.9334 33.62 44.9034 32.18 45.0134 30.75C45.6734 21.89 49.3435 14.53 55.8435 8.47C60.8635 3.8 67.0334 1.67 73.4634 0Z" fill="#343434"/>
</svg>
