<svg width="408" height="408" viewBox="0 0 408 408" fill="none" xmlns="http://www.w3.org/2000/svg">
<path d="M270.62 12C274.25 12.84 277.93 13.49 281.49 14.55C305.26 21.67 322.31 42.75 323.84 67.58C324.49 78.17 324.31 88.82 324.1 99.43C323.95 107.18 318.53 113.09 311.53 114.01C304.06 114.99 297.32 110.98 295.11 104C294.48 102.02 294.33 99.83 294.3 97.73C294.21 89.86 294.3 81.98 294.25 74.11C294.15 54.55 281.61 42.01 262.14 42.01C223.72 42 185.3 42.01 146.88 42.01C145.77 42.01 144.65 42.01 143.54 42.01C143.48 42.18 143.43 42.34 143.37 42.51C144.29 42.94 145.2 43.43 146.15 43.8C161.36 49.71 176.59 55.57 191.78 61.52C216.21 71.08 230.95 91.93 231.05 118.06C231.25 167.3 231.13 216.55 231.09 265.79C231.08 273.86 226.22 280.02 219.13 281.26C211.62 282.58 204.45 278.64 202.18 271.58C201.4 269.14 201.21 266.43 201.2 263.84C201.15 216.1 201.16 168.35 201.16 120.61C201.16 104.42 194.54 94.73 179.41 88.87C148.75 76.99 118.07 65.18 87.4497 53.2C84.5397 52.06 83.0297 52.5 81.3797 55.04C77.4797 61.03 76.0497 67.54 76.0597 74.6C76.0997 147.59 76.0697 220.58 76.1097 293.57C76.1097 300.81 75.8097 308.12 76.7097 315.27C78.0597 326.12 84.2397 334.13 94.3297 338.19C116.51 347.12 138.78 355.84 161.21 364.12C178.93 370.66 197.27 359.62 200.82 340.94C202.75 330.81 207.78 326.56 218.06 326.53C232.78 326.49 247.5 326.53 262.22 326.52C281.47 326.5 294.05 314.48 294.13 295.14C294.18 283.55 304.5 276.51 313.97 279.75C320.17 281.88 324.09 287.2 324.15 294.4C324.33 316.37 315.55 333.86 297.5 346.42C286.92 353.78 274.97 356.74 262.15 356.62C251.67 356.52 241.19 356.61 230.72 356.59C228.91 356.59 227.51 356.65 226.58 358.78C217.48 379.69 201.56 391.81 179.13 395.46C178.66 395.54 178.24 395.83 177.79 396.03C173.55 396.03 169.31 396.03 165.06 396.03C159.44 394.49 153.65 393.38 148.22 391.33C127.95 383.69 107.8 375.74 87.6097 367.89C60.0797 357.19 46.1397 336.78 46.1397 307.18C46.1397 269.08 46.1397 230.97 46.1397 192.87C46.1397 152.77 46.0797 112.66 46.1697 72.56C46.2297 46.45 61.8597 24.23 86.2997 15.47C90.4697 13.97 94.8897 13.16 99.1897 12.03C156.34 12 213.48 12 270.62 12Z" fill="#FF3535"/>
<path d="M310.079 180.36C306.669 177.08 303.199 173.87 299.869 170.51C293.159 163.72 292.879 154.71 299.099 148.51C305.329 142.3 314.29 142.58 321.06 149.32C332.99 161.21 344.899 173.13 356.749 185.1C363.589 192.01 363.56 200.7 356.68 207.65C344.82 219.62 332.919 231.54 320.989 243.43C314.349 250.05 305.109 250.28 299.009 244.12C292.859 237.9 293.229 228.91 299.999 222.13C303.319 218.81 306.739 215.59 310.109 212.32C309.969 212.01 309.839 211.71 309.699 211.4C308.399 211.4 307.11 211.4 305.81 211.4C293.47 211.4 281.129 211.49 268.789 211.36C260.649 211.27 254.539 205.53 253.699 197.58C252.959 190.59 257.809 183.67 264.899 181.89C266.679 181.44 268.599 181.42 270.459 181.42C282.299 181.38 294.149 181.4 305.989 181.4C307.189 181.4 308.399 181.4 309.599 181.4C309.739 181.06 309.909 180.71 310.079 180.36Z" fill="#FF3535"/>
</svg>
