<svg width="384" height="384" viewBox="0 0 384 384" fill="none" xmlns="http://www.w3.org/2000/svg">
<g clip-path="url(#clip0_2608_29)">
<path d="M258.618 0C262.248 0.84 265.928 1.48999 269.488 2.54999C293.258 9.66999 310.308 30.75 311.838 55.58C312.488 66.17 312.308 76.82 312.098 87.43C311.948 95.18 306.529 101.09 299.529 102.01C292.059 102.99 285.318 98.98 283.108 92C282.478 90.02 282.329 87.83 282.299 85.73C282.209 77.86 282.298 69.98 282.248 62.11C282.148 42.55 269.609 30.01 250.139 30.01C211.719 30 173.298 30.01 134.878 30.01C133.768 30.01 132.648 30.01 131.538 30.01C131.478 30.18 131.428 30.34 131.368 30.51C132.288 30.94 133.199 31.43 134.149 31.8C149.359 37.71 164.589 43.57 179.779 49.52C204.209 59.08 218.948 79.93 219.048 106.06C219.248 155.3 219.129 204.55 219.089 253.79C219.079 261.86 214.218 268.02 207.128 269.26C199.618 270.58 192.448 266.64 190.178 259.58C189.398 257.14 189.209 254.43 189.199 251.84C189.149 204.1 189.158 156.35 189.158 108.61C189.158 92.42 182.538 82.73 167.408 76.87C136.748 64.99 106.069 53.18 75.4485 41.2C72.5385 40.06 71.0285 40.5 69.3785 43.04C65.4785 49.03 64.0485 55.54 64.0585 62.6C64.0985 135.59 64.0685 208.58 64.1085 281.57C64.1085 288.81 63.8085 296.12 64.7085 303.27C66.0585 314.12 72.2385 322.13 82.3285 326.19C104.509 335.12 126.778 343.84 149.218 352.12C166.938 358.66 185.279 347.62 188.829 328.94C190.759 318.81 195.788 314.56 206.068 314.53C220.788 314.49 235.508 314.53 250.228 314.52C269.478 314.5 282.059 302.48 282.139 283.14C282.189 271.55 292.508 264.51 301.978 267.75C308.178 269.88 312.099 275.2 312.159 282.4C312.339 304.37 303.558 321.86 285.508 334.42C274.928 341.78 262.978 344.74 250.158 344.62C239.678 344.52 229.198 344.61 218.728 344.59C216.918 344.59 215.519 344.65 214.589 346.78C205.489 367.69 189.569 379.81 167.139 383.46C166.679 383.54 166.248 383.83 165.798 384.03C161.558 384.03 157.318 384.03 153.068 384.03C147.448 382.49 141.658 381.38 136.228 379.33C115.958 371.69 95.8085 363.74 75.6185 355.89C48.0885 345.19 34.1485 324.78 34.1485 295.18C34.1485 257.08 34.1485 218.97 34.1485 180.87C34.1485 140.77 34.0885 100.66 34.1785 60.56C34.2385 34.45 49.8685 12.23 74.3085 3.47C78.4785 1.97 82.8985 1.16 87.1985 0.0299988C144.339 -1.22003e-06 201.478 0 258.618 0Z" fill="#343434"/>
<path d="M298.079 168.357C294.669 165.077 291.199 161.867 287.869 158.507C281.159 151.717 280.879 142.707 287.099 136.507C293.329 130.297 302.29 130.577 309.06 137.317C320.99 149.207 332.899 161.127 344.749 173.097C351.589 180.007 351.56 188.697 344.68 195.647C332.82 207.617 320.919 219.537 308.989 231.427C302.349 238.047 293.109 238.277 287.009 232.117C280.859 225.897 281.229 216.907 287.999 210.127C291.319 206.807 294.739 203.587 298.109 200.317C297.969 200.007 297.839 199.707 297.699 199.397C296.399 199.397 295.11 199.397 293.81 199.397C281.47 199.397 269.129 199.487 256.789 199.357C248.649 199.267 242.539 193.527 241.699 185.577C240.959 178.587 245.809 171.667 252.899 169.887C254.679 169.437 256.599 169.417 258.459 169.417C270.299 169.377 282.149 169.397 293.989 169.397C295.189 169.397 296.399 169.397 297.599 169.397C297.739 169.057 297.909 168.707 298.079 168.357Z" fill="#343434"/>
</g>
<defs>
<clipPath id="clip0_2608_29">
<rect width="384" height="384" fill="white"/>
</clipPath>
</defs>
</svg>
