<svg width="408" height="408" viewBox="0 0 408 408" fill="none" xmlns="http://www.w3.org/2000/svg">
<path d="M308.77 12C313.63 14.23 318.08 16.97 319.41 22.62C320 25.13 319.95 27.8 320.11 30.41C320.2 31.88 320.13 33.37 320.13 35.02C324.46 35.48 328.56 35.64 332.55 36.39C362.01 41.98 382.35 65.82 382.52 96.05C382.83 150.3 382.64 204.55 382.58 258.79C382.57 267.24 377.35 273.53 369.96 274.52C362.36 275.54 355.43 271.37 353.4 264.2C352.73 261.85 352.7 259.27 352.7 256.79C352.66 203.92 352.69 151.04 352.66 98.17C352.65 83.03 345.01 71.45 331.96 67.17C328.38 65.99 324.51 65.71 320.13 64.9C320.13 69.42 320.16 73.13 320.12 76.83C320.02 86.07 313.8 92.68 305.24 92.69C296.74 92.7 290.35 86.01 290.2 76.89C290.14 73.18 290.19 69.48 290.19 65.59C277.54 65.59 265.37 65.59 252.67 65.59C252.67 69.4 252.69 73.09 252.67 76.79C252.6 85.94 246.34 92.63 237.8 92.69C229.34 92.75 222.84 85.98 222.74 76.94C222.7 73.23 222.73 69.51 222.73 65.6C210.15 65.6 197.98 65.6 185.21 65.6C185.21 69.83 185.36 74.03 185.18 78.22C184.82 86.48 178.05 92.86 170.01 92.7C161.86 92.54 155.5 86.09 155.31 77.77C155.25 74.9 155.31 72.02 155.28 69.15C155.27 68.05 155.18 66.96 155.11 65.64C142.76 65.64 130.59 65.64 117.77 65.64C117.77 69.57 117.87 73.5 117.75 77.43C117.43 87.5 109.16 94.24 99.6002 92.32C93.0902 91.01 88.1602 85.32 87.9102 78.56C87.7602 74.34 87.8803 70.11 87.8803 65.59C80.5203 65.12 74.1902 66.93 68.5502 70.9C59.3702 77.36 55.2802 86.46 55.3002 97.58C55.3302 120.33 55.3102 143.08 55.3102 165.83C55.3102 221.58 55.3503 277.33 55.2803 333.07C55.2703 343.55 58.4902 352.46 66.7202 359.19C72.6602 364.05 79.5703 366.04 87.2103 366.03C140.98 365.98 194.75 366.01 248.51 366.01C272.09 366.01 295.68 365.56 319.24 366.15C337.78 366.62 352.52 353.35 352.8 334.62C352.95 324.44 361.65 318.01 371.16 320.22C378 321.82 382.52 327.82 382.61 335.42C382.95 364.59 360.65 390.84 331.81 395.24C330.86 395.39 329.94 395.74 329.01 395.99C245.67 395.99 162.34 395.99 79.0003 395.99C78.3103 395.76 77.6503 395.43 76.9403 395.31C52.4303 390.83 35.9602 376.81 28.2302 353.12C26.2602 347.07 25.5002 340.37 25.4902 333.96C25.3102 255.13 25.3303 176.3 25.3903 97.47C25.4103 66.46 45.4603 42.07 75.4603 36.38C79.4403 35.63 83.5402 35.47 87.8502 35.02C87.8502 33.34 87.7802 31.85 87.8702 30.38C88.0302 27.78 87.9703 25.11 88.5703 22.6C89.9203 16.98 94.3503 14.21 99.2103 12C101.46 12 103.7 12 105.95 12C117.29 15.82 118.73 24.97 117.71 35.11C130.57 35.11 142.81 35.11 155.32 35.11C155.32 33.49 155.27 32.14 155.33 30.79C155.44 28.31 155.33 25.77 155.82 23.37C157.04 17.43 161.48 14.35 166.58 12C168.83 12 171.07 12 173.32 12C184.8 15.74 186.26 24.89 185.08 35.39C191.84 35.39 197.93 35.39 204.02 35.39C210.2 35.39 216.38 35.39 222.48 35.39C224.13 17.49 224.7 16.42 234.7 12C236.95 12 239.19 12 241.44 12C252.27 16.18 253.74 25.15 252.58 35.11C265.47 35.11 277.72 35.11 289.93 35.11C291.87 17.1 292.15 16.57 302.07 12C304.28 12 306.52 12 308.77 12Z" fill="#323232"/>
<path d="M237.65 144.73C260.1 144.73 282.54 144.66 304.99 144.76C315.98 144.81 323.23 155.51 319.02 165.39C316.35 171.66 311.32 174.7 304.56 174.72C290.97 174.76 277.38 174.73 263.78 174.73C232.85 174.73 201.93 174.77 171 174.71C159.84 174.69 152.49 164.58 156.17 154.53C158.37 148.51 163.83 144.75 170.69 144.74C193.01 144.7 215.33 144.73 237.65 144.73Z" fill="#323232"/>
<path d="M237.65 211.32C260.09 211.32 282.54 211.32 304.98 211.32C311.51 211.32 316.28 214.36 318.87 220.28C321.38 226.05 320.42 231.56 316.24 236.32C312.87 240.16 308.38 241.34 303.43 241.33C289.59 241.3 275.75 241.32 261.91 241.32C231.99 241.32 202.06 241.3 172.14 241.33C165.03 241.34 159.42 238.8 156.48 232.02C152.13 221.99 159.39 211.39 170.7 211.34C193.01 211.25 215.33 211.31 237.65 211.32Z" fill="#323232"/>
<path d="M237.27 307.68C215.08 307.68 192.88 307.76 170.69 307.65C159.38 307.6 152.17 297.01 156.47 286.96C158.52 282.17 162.14 279.11 167.31 278.15C169.13 277.81 171.02 277.71 172.88 277.71C216.15 277.69 259.41 277.67 302.68 277.74C305.26 277.74 307.97 277.99 310.39 278.81C317.3 281.14 321.19 288.24 319.93 295.53C318.74 302.4 312.73 307.61 305.36 307.65C282.66 307.74 259.97 307.67 237.27 307.68Z" fill="#323232"/>
<path d="M87.88 159.6C87.91 151.25 94.56 144.68 102.91 144.75C110.9 144.82 117.66 151.59 117.72 159.6C117.78 167.69 110.79 174.71 102.72 174.68C94.41 174.65 87.85 167.99 87.88 159.6Z" fill="#323232"/>
<path d="M102.39 307.621C94.0201 307.451 87.7201 300.791 87.8901 292.311C88.0601 284.201 94.8001 277.671 102.9 277.771C111.07 277.871 117.97 284.981 117.7 293.011C117.41 301.441 110.75 307.791 102.39 307.621Z" fill="#323232"/>
<path d="M87.8799 226.24C87.8799 217.83 94.3799 211.36 102.82 211.37C110.92 211.38 117.65 218 117.72 226.03C117.79 234.21 110.99 241.14 102.83 241.19C94.5199 241.24 87.8899 234.61 87.8799 226.24Z" fill="#323232"/>
</svg>
