<svg width="408" height="408" viewBox="0 0 408 408" fill="none" xmlns="http://www.w3.org/2000/svg">
<path d="M216.01 12.0002C222.9 12.9602 229.81 13.7602 236.67 14.9102C311.75 27.5502 373.07 85.2502 390.36 159.36C396.08 183.86 397.15 208.52 393.38 233.4C392 242.52 384.69 248.25 375.98 246.89C367.55 245.57 362.46 237.94 363.68 228.91C371.26 172.87 355.19 124.57 314.16 85.8602C278.04 51.7902 234.29 37.6202 184.89 43.4102C115.02 51.6002 59.1202 103.05 45.7202 172.15C35.1902 226.43 49.6502 274.23 86.6802 315.19C87.3302 315.91 88.0802 316.53 88.7802 317.19C114.01 271.6 151.84 245.67 204.17 245.69C256.39 245.71 294.09 271.64 319.33 317.15C319.95 316.61 320.76 316.08 321.34 315.36C326.97 308.36 332.72 301.46 338.12 294.29C343.77 286.78 352.65 284.75 359.71 289.74C366.64 294.64 368.06 303.76 362.82 311.31C329.57 359.21 283.99 386.86 226.32 394.6C222.89 395.06 219.45 395.52 216.02 395.99C208.04 395.99 200.05 395.99 192.07 395.99C191.12 395.77 190.18 395.5 189.21 395.35C179.38 393.79 169.41 392.87 159.74 390.62C85.4802 373.37 27.9802 311.95 15.3502 236.65C14.1602 229.55 13.3802 222.38 12.4102 215.24C12.4102 207.74 12.4102 200.24 12.4102 192.74C12.6202 191.67 12.8802 190.6 13.0402 189.51C14.3502 180.63 15.1702 171.65 17.0002 162.89C32.7202 87.6503 95.3502 27.5702 171.04 14.9602C178.02 13.8002 185.05 12.9702 192.06 11.9902C200.04 12.0002 208.02 12.0002 216.01 12.0002ZM295.07 337.55C282.28 303.58 246.08 273.68 200.4 275.54C161.38 277.13 120.5 306.6 113.3 337.57C166.43 375.02 241.07 375.54 295.07 337.55Z" fill="#323232"/>
<path d="M204.24 88.3604C239.51 88.4304 267.81 116.97 267.72 152.38C267.63 187.59 238.91 216.12 203.71 215.97C168.77 215.82 140.34 187.11 140.38 152.03C140.43 116.73 168.95 88.3004 204.24 88.3604ZM204.21 118.36C185.51 118.29 170.39 133.29 170.33 151.98C170.26 170.63 185.36 185.9 203.92 185.97C222.52 186.04 237.73 170.9 237.78 152.27C237.83 133.49 222.92 118.43 204.21 118.36Z" fill="#323232"/>
</svg>
